<svg id="Layer_1" data-name="Layer 1" xmlns="http://www.w3.org/2000/svg" viewBox="0 0 200 200"><defs><style>.cls-1{fill:none;stroke:#000;stroke-linecap:square;stroke-linejoin:round;stroke-width:12px;}</style></defs><title>api</title><polyline class="cls-1" points="85.01 155.5 85.01 164.89 33.13 164.89 33.13 113.02 85.01 113.02 85.01 122.77"/><line class="cls-1" x1="115.01" y1="138.95" x2="78.88" y2="138.95"/><polyline class="cls-1" points="42.52 83.02 33.13 83.02 33.13 31.14 85.01 31.14 85.01 83.02 75.26 83.02"/><line class="cls-1" x1="59.07" y1="113.02" x2="59.07" y2="76.88"/><polyline class="cls-1" points="115.01 40.53 115.01 31.14 166.88 31.14 166.88 83.02 115.01 83.02 115.01 73.27"/><line class="cls-1" x1="85.01" y1="57.08" x2="120.63" y2="57.08"/><polyline class="cls-1" points="157.49 113.02 166.88 113.02 166.88 164.89 115.01 164.89 115.01 113.02 124.76 113.02"/><line class="cls-1" x1="140.94" y1="83.02" x2="140.94" y2="118.75"/></svg>
