<svg xmlns="http://www.w3.org/2000/svg" width="47" height="57" viewBox="0 0 47 57">
    <path fill="#000" fill-rule="evenodd" d="M7.47 30.406C5.922 25.323 5.093 20.636 5 16.45a17.467 17.467 0 0 0 8.328-9.802C16.441 5.613 20.338 5.005 24 5l-.001.139v46.86l-.003.001c-3.358-2.327-12.94-9.813-16.526-21.594m39.52-16.047l-.035-1.453-1.316-.6a12.632 12.632 0 0 1-6.988-8.26l-.3-1.122-1.075-.428C33.347.933 28.215 0 23.547 0c-4.614 0-9.608.872-13.36 2.334l-1.101.43-.295 1.15a12.739 12.739 0 0 1-7.37 8.547l-1.386.581-.028 1.51c-.094 5.017.8 10.664 2.657 16.786 4.85 15.992 19.061 24.605 19.664 24.964L23.5 57l1.172-.698c.603-.359 14.813-8.972 19.663-24.964 1.882-6.206 2.775-11.919 2.654-16.98"/>
</svg>
