<svg xmlns="http://www.w3.org/2000/svg" width="89" height="77" viewBox="0 0 89 77">
    <path fill="#ffffff" fill-rule="evenodd" d="M69.742 65.797a3.065 3.065 0 0 0-2.254.592 21.873 21.873 0 0 1-12.81 4.103c-12.151 0-22.037-9.885-22.037-22.036 0-12.15 9.886-22.037 22.037-22.037s22.036 9.886 22.036 22.037c0 2.883-.547 5.685-1.627 8.329l-.494 1.208 3.986 8.987-8.837-1.183zm-43.21-16.511a21.828 21.828 0 0 1-5.075-2.727c-.023-.016-.048-.03-.072-.046a2.244 2.244 0 0 0-.264-.16 3.09 3.09 0 0 0-.271-.131 2.944 2.944 0 0 0-.166-.065c-.037-.014-.076-.025-.113-.037a3.058 3.058 0 0 0-.178-.05c-.035-.009-.07-.016-.106-.024a3.294 3.294 0 0 0-.486-.06l-.111-.003c-.061 0-.122 0-.183.004-.044.002-.087.007-.13.01-.04.005-.079.005-.118.01l-8.837 1.184 3.986-8.987-.494-1.209a21.92 21.92 0 0 1-1.628-8.329c0-12.15 9.886-22.036 22.037-22.036 9.091 0 17.053 5.475 20.391 13.66h-.036c-15.532 0-28.167 12.634-28.167 28.166 0 .278.013.554.02.83zm54.706 8.569a28.049 28.049 0 0 0 1.606-9.4c0-13.191-9.117-24.289-21.38-27.334C58.091 8.93 47.074.5 34.323.5 18.792.5 6.155 13.136 6.155 28.666c0 3.233.54 6.389 1.608 9.4L.376 54.72 18.91 52.24a27.793 27.793 0 0 0 8.638 3.773c3.312 11.872 14.216 20.61 27.13 20.61 5.53 0 10.836-1.584 15.421-4.593l18.525 2.48-7.386-16.654z"/>
</svg>
