<svg xmlns="http://www.w3.org/2000/svg" width="62" height="41" viewBox="0 0 62 41">
    <g fill="none" fill-rule="evenodd">
        <path stroke="#000" stroke-width="4" d="M57.518 16.703C55.158 8.346 49.1-1.994 37.693 3.576a3.839 3.839 0 0 0-.55.329c-.6.37-1.556.938-2.217 1.358a3.77 3.77 0 0 1-1.847.65h-4.156a3.77 3.77 0 0 1-1.847-.65c-.65-.42-1.607-1-2.216-1.358a3.839 3.839 0 0 0-.55-.329C12.898-1.994 6.84 8.346 4.48 16.703c-2.64 9.35-1.655 20.302 2.217 21.981 2.246.971 5.13-.324 7.949-3.525 0 0 5.016-5.577 6.07-5.946 1.052-.37 10.283-.248 10.283-.248s9.235-.125 10.284.248c1.05.372 6.07 5.946 6.07 5.946 2.818 3.2 5.7 4.496 7.949 3.525 3.871-1.672 4.861-12.631 2.216-21.981z"/>
        <path fill="#000" fill-rule="nonzero" d="M20.026 10h-3.071a.609.609 0 0 0-.61.608v2.748h-2.751a.609.609 0 0 0-.594.609v3.067c0 .336.273.608.609.608h2.737v2.752a.608.608 0 0 0 .609.608h3.071a.609.609 0 0 0 .61-.608V17.64h2.755a.609.609 0 0 0 .609-.608v-3.067a.609.609 0 0 0-.609-.609h-2.756v-2.748a.608.608 0 0 0-.609-.608zM41.5 10a2.5 2.5 0 1 0 0 5 2.5 2.5 0 0 0 0-5zM47.5 16a2.5 2.5 0 1 0 2.5 2.507 2.5 2.5 0 0 0-2.5-2.5V16z"/>
    </g>
</svg>
