<svg id="Layer_1" data-name="Layer 1" xmlns="http://www.w3.org/2000/svg" viewBox="0 0 200 200"><defs><style>.cls-1{fill:none;stroke:#000;stroke-linecap:round;stroke-linejoin:round;stroke-width:12px;}</style></defs><title>expertTeam</title><path class="cls-1" d="M150.78,81.48V67.82l-12.46-3.71a41.69,41.69,0,0,0-5.93-14.34l6.22-11.43-3.47-3.48-3.47-3.48-11.44,6.2a41.69,41.69,0,0,0-14.32-6l-3.68-12.47H92.42L88.71,31.62a41.69,41.69,0,0,0-14.33,5.93L62.94,31.32l-3.48,3.47L56,38.26l6.2,11.45a41.69,41.69,0,0,0-6,14.31L43.76,67.71V82.1m37.92-2.42a17.11,17.11,0,1,1,31.67-1.07"/><path class="cls-1" d="M120.19,85.86a24.27,24.27,0,1,1,0,34"/><path class="cls-1" d="M132.49,163.71h28c4.19,0,7.59-2.75,7.59-6.15V142.77c0-8.87-5.75-16.65-14.4-21"/><path class="cls-1" d="M73.61,85.86a24.27,24.27,0,1,0,0,34"/><path class="cls-1" d="M61.31,163.71h-28c-4.19,0-7.59-2.75-7.59-6.15V142.77c0-8.87,5.75-16.65,14.4-21"/><circle class="cls-1" cx="97.27" cy="103.16" r="27.96"/><path class="cls-1" d="M78.25,125.09c-9.74,5.08-16.2,13.93-16.2,24v17c0,3.91,3.91,7.08,8.74,7.08h52.95c4.83,0,8.74-3.17,8.74-7.08v-17c0-10.21-6.62-19.17-16.58-24.21"/></svg>
