<svg id="Layer_1" data-name="Layer 1" xmlns="http://www.w3.org/2000/svg" viewBox="0 0 200 200" fill="#fff">
  <title>epicgames</title>
  <g id="NTY2me.tif">
  <path d="M14.41,155.67V14.39a10.46,10.46,0,0,0,.12-1.11,19.81,19.81,0,0,1,.69-4.66,10.12,10.12,0,0,1,6.84-7.51A26.12,26.12,0,0,1,30.33,0H170.8a28.58,28.58,0,0,1,7.25.79,10.13,10.13,0,0,1,7.55,6.81,25.31,25.31,0,0,1,1.1,8.33q0,68.81,0,137.6a41.92,41.92,0,0,1-.53,6.62,8.44,8.44,0,0,1-2.41,4.87,15,15,0,0,1-4.72,3.05c-4.55,1.87-9.08,3.8-13.61,5.71-19.81,8.34-39.68,16.53-59.44,25a12.6,12.6,0,0,1-9.89.37c-1.22-.47-2.39-1-3.6-1.55L57.57,183,22,168a13.3,13.3,0,0,1-5.18-3.62,9.3,9.3,0,0,1-2-5.19C14.69,158,14.55,156.86,14.41,155.67ZM127.19,64.93h0V90.29a17.91,17.91,0,0,0,.79,5.44,10.67,10.67,0,0,0,6.51,7.09,18.2,18.2,0,0,0,6.45,1.11,55.41,55.41,0,0,0,10.22-.33,11.15,11.15,0,0,0,8-5,14.06,14.06,0,0,0,2.06-7.46c.07-6.24,0-12.48,0-18.71,0-.47-.13-.6-.59-.6q-5.13,0-10.25,0c-.51,0-.64.14-.63.63,0,2.71,0,5.42,0,8.13,0,3,0,6.08,0,9.12A3.49,3.49,0,0,1,147,93.42a13.37,13.37,0,0,1-5.42-.06,3.12,3.12,0,0,1-2.48-2.49,9,9,0,0,1-.19-2.31V41.29c0-.46,0-.93,0-1.4a3.48,3.48,0,0,1,3.22-3.53,15.13,15.13,0,0,1,3.92,0,3.51,3.51,0,0,1,3.5,3.82c0,5,0,10,0,15,0,.51.12.68.66.67,3.39,0,6.79,0,10.18,0,.56,0,.7-.15.7-.7,0-4.77,0-9.54,0-14.31a25.26,25.26,0,0,0-.49-5.42,10.91,10.91,0,0,0-4.87-7.4,14,14,0,0,0-7.09-2c-2.5-.1-5,0-7.52,0a20.6,20.6,0,0,0-4.36.43,11.09,11.09,0,0,0-7.51,4.92,14.3,14.3,0,0,0-2.06,7.61C127.16,47.58,127.19,56.25,127.19,64.93Zm-55.62,0q0,18.84,0,37.68c0,.58.15.74.73.73,3.4,0,6.79,0,10.19,0,.69,0,.83-.2.83-.86,0-8.76,0-17.52,0-26.29,0-.54.12-.73.69-.71,1.84,0,3.69,0,5.53,0a22.09,22.09,0,0,0,6.56-.88A10.56,10.56,0,0,0,103,68.11a20.26,20.26,0,0,0,1.13-7.31q0-9.79,0-19.57a22.36,22.36,0,0,0-.77-6.25,10.59,10.59,0,0,0-5.52-6.81,18.19,18.19,0,0,0-8.34-1.62c-5.71,0-11.41,0-17.11,0-.7,0-.82.2-.82.85Q71.59,46.15,71.57,64.91Zm-31.73,0q0,18.81,0,37.62c0,.46,0,.76.63.76q12.45,0,24.9,0c.51,0,.64-.15.63-.64,0-3.11,0-6.22,0-9.32,0-.62-.2-.72-.76-.72-4.32,0-8.65,0-13,0-.58,0-.74-.14-.74-.74q0-10.84,0-21.7c0-.62.21-.71.76-.71,4.11,0,8.21,0,12.32,0,.52,0,.67-.14.67-.66q0-4.66,0-9.32c0-.56-.16-.7-.71-.7-4.08,0-8.16,0-12.25,0-.57,0-.79-.1-.79-.75q0-10.05,0-20.1c0-.6.14-.79.76-.78,4.24,0,8.48,0,12.72,0,.7,0,.83-.2.82-.85q0-4.56,0-9.12c0-.6-.14-.78-.76-.78q-12.23,0-24.43,0c-.64,0-.81.15-.81.8Q39.85,46.14,39.84,64.94Zm81.22.06q0-18.82,0-37.67c0-.6-.15-.78-.77-.77-3.41,0-6.83,0-10.25,0-.51,0-.72.08-.72.67q0,37.71,0,75.41c0,.52.13.68.66.68,3.42,0,6.84,0,10.25,0,.7,0,.83-.2.83-.86Q121,83.74,121.06,65Zm-16.6,66a3.65,3.65,0,0,1-.23-.31c-1.71-2.77-3.43-5.54-5.12-8.32a.75.75,0,0,0-.73-.44q-2.76,0-5.52,0c-.46,0-.56.16-.56.58q0,11,0,22c0,.46.12.62.6.61,1.51,0,3,0,4.52,0,1,0,1,.16,1-1,0-3.9,0-7.81,0-11.71,0-.22-.08-.47.11-.7,2,3,3.88,6,5.85,9l5.93-9.11.12,0v.71c0,4,0,8,0,12.05,0,.49.12.65.63.64,1.66,0,3.33,0,5,0,.45,0,.56-.15.56-.57q0-11.06,0-22.1c0-.39-.08-.56-.51-.55-1.87,0-3.73,0-5.59,0a.65.65,0,0,0-.64.36c-.63,1-1.28,2.07-1.93,3.1ZM67.61,172.6l0,.09.54.2,31.4,10.81a1.54,1.54,0,0,0,1.08,0q16.28-5.37,32.54-10.74a1.15,1.15,0,0,0,.72-.34Zm-10.9-41c-1.55,0-3.1,0-4.66,0-.5,0-.64.16-.63.65,0,1.16,0,2.31,0,3.47,0,.5.16.64.65.63,1.17,0,2.35,0,3.52,0,.38,0,.51.11.5.49,0,.64,0,1.29,0,1.93a.62.62,0,0,1-.43.66,6.92,6.92,0,0,1-7.31-.41,6.82,6.82,0,0,1-2.28-7.41A6,6,0,0,1,51.83,127a8,8,0,0,1,5.2,1.9c.34.28.52.25.79-.08,1-1.21,1.94-2.42,3-3.59.33-.37.27-.52-.09-.8a13.41,13.41,0,0,0-7.82-2.94,12.43,12.43,0,0,0-9.3,3,11.61,11.61,0,0,0-4,10.68,10.79,10.79,0,0,0,6.64,9.18c5.49,2.38,10.64,1.43,15.39-2.08a.87.87,0,0,0,.36-.8q0-4.62,0-9.25c0-.52-.18-.63-.65-.62C59.77,131.62,58.24,131.6,56.71,131.6Zm64.5,1.91q0,5.49,0,11c0,.38,0,.67.53.67,5.84,0,11.68,0,17.51,0,.38,0,.5-.13.49-.5,0-1.35,0-2.71,0-4.06,0-.65-.21-.75-.79-.75-3.61,0-7.23,0-10.85,0-.57,0-.84-.09-.79-.75a13.83,13.83,0,0,0,0-2.32c0-.65.11-.87.82-.86,3.19.05,6.39,0,9.59,0,.49,0,.65-.14.64-.63,0-1.18-.05-2.36,0-3.53,0-.63-.13-.83-.79-.83-3.22,0-6.44,0-9.66,0-.46,0-.61-.13-.59-.6a21.16,21.16,0,0,0,0-2.39c0-.63.12-.83.79-.82,3.62,0,7.24,0,10.85,0,.5,0,.65-.13.64-.64,0-1.33,0-2.66,0-4,0-.54-.16-.67-.67-.66-5.68,0-11.36,0-17,0-.59,0-.69.21-.68.73C121.22,126.28,121.21,129.89,121.21,133.51ZM86.46,145.15c.91,0,1.82,0,2.73,0,.52,0,.55-.14.36-.57-.57-1.29-1.1-2.61-1.64-3.91q-3.82-9.09-7.63-18.18a.93.93,0,0,0-1-.7c-1.48,0-3,0-4.46,0a1,1,0,0,0-1.1.77c-1.07,2.64-2.18,5.27-3.28,7.9q-3,7.06-6,14.13c-.18.42-.17.58.35.57,1.78,0,3.55,0,5.33,0a.66.66,0,0,0,.73-.5c.43-1.16.91-2.3,1.35-3.46a.57.57,0,0,1,.62-.44q4.09,0,8.18,0a.56.56,0,0,1,.62.44c.44,1.16.92,2.3,1.35,3.46a.65.65,0,0,0,.73.5C84.64,145.13,85.55,145.15,86.46,145.15ZM152,121.57a11.3,11.3,0,0,0-2.25.14c-2.82.49-5.17,1.68-6.3,4.48s-.76,6.44,2.67,8.27a22.78,22.78,0,0,0,5.34,1.77,13.31,13.31,0,0,1,3,1,1.42,1.42,0,0,1,.94,1.65,1.46,1.46,0,0,1-1.24,1.29,5.39,5.39,0,0,1-1.44.21A11.21,11.21,0,0,1,146,138c-.51-.39-.77-.32-1.15.16-.75,1-1.57,1.92-2.37,2.87-.61.74-.62.75.18,1.33a15.71,15.71,0,0,0,13.22,2.77,6.9,6.9,0,0,0,5.8-6.26,5.93,5.93,0,0,0-2.66-6,16.73,16.73,0,0,0-5.26-2,19.92,19.92,0,0,1-3.55-1.08,1.45,1.45,0,0,1-1-1.67,1.58,1.58,0,0,1,1.35-1.28,5.68,5.68,0,0,1,2.25,0,11.59,11.59,0,0,1,4.75,1.94c.34.22.49.18.72-.15.78-1.16,1.57-2.32,2.41-3.43.37-.49.23-.72-.21-1A14.45,14.45,0,0,0,152,121.57Z"/><path d="M83.29,50.94c0-4.45,0-8.91,0-13.37,0-.5.1-.7.65-.67,1.73.07,3.47-.12,5.19.11a3.35,3.35,0,0,1,3.18,3.11,9.39,9.39,0,0,1,.13,1.59q0,9.32,0,18.63a5.33,5.33,0,0,1-.79,3.3,3.57,3.57,0,0,1-2.93,1.46c-1.64.06-3.28,0-4.92,0-.59,0-.5-.34-.5-.69Z"/><path d="M74.3,135.84,77,129.16c.73,1.86,1.42,3.6,2.1,5.35.52,1.32.52,1.33-.88,1.33Z"/>
  </g>
</svg>
