<svg xmlns="http://www.w3.org/2000/svg" width="88" height="40" viewBox="0 0 88 40">
    <g fill="none" fill-rule="evenodd">
        <path fill="#FFFFFF" d="M77 0v.633h1.644V5h.715V.633H81V0zM86.799 0l-1.298 4.156L84.198 0H83v5h.718V.655L85.122 5h.754L87.28.655V5H88V0zM5.099 14.108h7.147c.41 0 .774-.369.774-.783v-2.81c0-.416-.364-.784-.774-.784H5.099c-.41 0-.774.368-.774.783v2.81c0 .415.364.784.774.784m-.774 12.395v-2.81c0-.416-.364-.784-.774-.784H.774c-.41 0-.774-.369-.774-.783V10.514c0-.415.364-.783.774-.783H3.55c.41 0 .774-.369.774-.783V6.136c0-.414.364-.783.774-.783h7.147c.41 0 .774.369.774.783v2.812c0 .414.364.783.774.783h2.777c.41 0 .774.368.774.783v7.234c0 .415-.364.783-.774.783H5.1c-.41 0-.774.37-.774.784v2.81c0 .415.364.784.774.784H16.57c.41 0 .774.368.774.783v2.81c0 .415-.364.784-.774.784H5.1c-.41 0-.774-.369-.774-.783M24.801 22.909h7.147c.41 0 .774-.369.774-.783v-2.812c0-.414-.364-.783-.774-.783h-7.147c-.41 0-.774.37-.774.783v2.812c0 .414.364.783.774.783m-5.099-.783V14.89c0-.414.364-.783.774-.783h11.472c.41 0 .774-.368.774-.783v-2.81c0-.416-.364-.784-.774-.784H20.476c-.41 0-.774-.369-.774-.784v-2.81c0-.415.364-.784.774-.784h11.472c.41 0 .774.369.774.784v2.81c0 .415.365.784.775.784h2.777c.41 0 .773.368.773.783v15.989c0 .414-.364.783-.773.783H24.8c-.41 0-.774-.369-.774-.783v-2.81c0-.416-.364-.784-.774-.784h-2.777c-.41 0-.774-.369-.774-.783M39.457 26.503v-2.81c0-.416.365-.784.775-.784h11.472c.41 0 .773-.369.773-.783v-2.811c0-.415-.363-.784-.773-.784H40.232c-.41 0-.775-.368-.775-.783v-7.234c0-.415.365-.783.775-.783h2.777c.409 0 .773-.369.773-.783V6.136c0-.414.365-.783.774-.783H56.03c.41 0 .774.369.774.783v2.812c0 .414-.365.783-.774.783H44.556c-.41 0-.774.368-.774.783v2.81c0 .415.365.784.774.784H56.03c.41 0 .774.369.774.783v7.235c0 .414-.365.783-.774.783H53.25c-.409 0-.774.368-.774.783v2.81c0 .415-.363.784-.773.784H40.232c-.41 0-.775-.369-.775-.783M63.659 26.503v-2.81c0-.416-.365-.784-.774-.784h-2.778c-.41 0-.773-.369-.773-.783V10.494c0-.415.364-.783.773-.783h2.778c.41 0 .774.368.774.783v11.632c0 .414.364.783.774.783h7.147c.41 0 .774-.369.774-.783V6.136c0-.414.364-.783.774-.783h2.777c.41 0 .774.369.774.783V34.84c0 .414-.364.783-.774.783h-2.777c-.41 0-.774.368-.774.783v2.81c0 .415-.364.784-.774.784H60.107c-.41 0-.773-.369-.773-.783v-2.81c0-.416.364-.784.773-.784H71.58c.41 0 .774-.369.774-.783v-6.77c0-.416-.364-.784-.774-.784h-7.147c-.41 0-.774-.369-.774-.783"/>
        <path fill="#27A9E0" d="M4.082 38.208c.03 0 .06-.019.06-.056 0-.024-.006-.042-.006-.042l-.474-1.498h-.024l-.476 1.498s-.006.018-.006.042c0 .037.03.056.061.056h.865zm-1.072.641c-.079 0-.097.067-.097.067l-.311.968a.114.114 0 0 1-.11.08c-.036 0-.054-.006-.054-.006l-.457-.148a.125.125 0 0 1-.079-.117c0-.018.007-.043.007-.043l1.247-3.87c.025-.08.074-.092.134-.092h.719c.06 0 .109.012.133.092l1.249 3.87s.006.025.006.043c0 .05-.03.099-.08.117l-.456.148s-.019.006-.055.006a.115.115 0 0 1-.11-.08l-.31-.968s-.018-.067-.097-.067H3.01zM8.41 39.822v-4.017c0-.074.055-.117.122-.117h.693c.067 0 .098.037.128.092l1.43 2.927h.025v-2.902c0-.074.055-.117.122-.117h.493c.067 0 .122.043.122.117v4.017c0 .074-.055.117-.122.117h-.688c-.024 0-.085-.006-.116-.061L9.171 36.92h-.024v2.902c0 .074-.055.117-.123.117h-.492c-.067 0-.122-.043-.122-.117M15.635 39.822v-3.357c0-.056-.03-.087-.079-.087h-.876c-.074 0-.122-.05-.122-.117v-.456c0-.074.048-.117.122-.117h2.641c.073 0 .122.043.122.117v.456c0 .068-.049.117-.122.117h-.876c-.049 0-.08.031-.08.087v3.357c0 .074-.054.117-.121.117h-.487c-.067 0-.122-.043-.122-.117M21.187 39.822c0 .074-.055.117-.122.117h-.487c-.067 0-.121-.043-.121-.117v-4.017c0-.074.054-.117.121-.117h.487c.067 0 .122.043.122.117v4.017zM24.139 38.59v-.382c0-.068.049-.117.122-.117h1.516c.073 0 .121.05.121.117v.382c0 .068-.048.117-.121.117H24.26c-.073 0-.122-.05-.122-.117M28.76 36.81c0-.653.462-1.122 1.102-1.122h.736c.475 0 .84.271.98.678 0 0 .006.024.006.037a.086.086 0 0 1-.049.08l-.365.172a.13.13 0 0 1-.06.019.091.091 0 0 1-.062-.025l-.182-.148a.556.556 0 0 0-.408-.148h-.512a.444.444 0 0 0-.456.463v1.996c0 .271.195.462.456.462h.512a.558.558 0 0 0 .408-.148l.182-.148a.096.096 0 0 1 .061-.024c.025 0 .05.012.061.018l.365.173a.085.085 0 0 1 .05.08.225.225 0 0 1-.007.037c-.14.406-.505.677-.98.677h-.736c-.64 0-1.102-.468-1.102-1.121v-2.009zM36.898 35.805c0-.074.049-.117.122-.117h.487c.073 0 .122.043.122.117v4.017c0 .074-.049.117-.122.117h-.487c-.073 0-.122-.043-.122-.117v-1.62c0-.055-.036-.087-.085-.087h-1.278c-.049 0-.086.032-.086.087v1.62c0 .074-.048.117-.121.117h-.487c-.073 0-.122-.043-.122-.117v-4.017c0-.074.049-.117.122-.117h.487c.073 0 .121.043.121.117v1.534c0 .056.037.087.086.087h1.278c.05 0 .085-.031.085-.087v-1.534zM43.424 39.25c.073 0 .122.048.122.117v.455c0 .074-.049.118-.122.118h-2.325c-.074 0-.122-.044-.122-.118v-4.017c0-.074.048-.117.122-.117h2.325c.073 0 .122.043.122.117v.456c0 .068-.049.117-.122.117h-1.637c-.043 0-.08.037-.08.086v.9c0 .049.037.086.08.086h1.29c.073 0 .122.043.122.117v.456c0 .074-.049.118-.122.118h-1.29c-.043 0-.08.036-.08.085v.937c0 .056.037.086.08.086h1.637zM48.586 38.208c.03 0 .06-.019.06-.056 0-.024-.005-.042-.005-.042l-.475-1.498h-.024l-.475 1.498s-.006.018-.006.042c0 .037.03.056.06.056h.865zm-1.072.641c-.079 0-.097.067-.097.067l-.31.968a.115.115 0 0 1-.11.08c-.036 0-.054-.006-.054-.006l-.457-.148a.125.125 0 0 1-.08-.117c0-.018.007-.043.007-.043l1.248-3.87c.024-.08.073-.092.134-.092h.718c.061 0 .11.012.134.092l1.248 3.87s.006.025.006.043c0 .05-.03.099-.08.117l-.456.148s-.018.006-.055.006a.115.115 0 0 1-.11-.08l-.31-.968s-.018-.067-.097-.067h-1.279zM53.297 39.822v-3.357c0-.056-.03-.087-.079-.087h-.876c-.074 0-.122-.05-.122-.117v-.456c0-.074.048-.117.122-.117h2.642c.072 0 .121.043.121.117v.456c0 .068-.049.117-.121.117h-.877c-.049 0-.08.031-.08.087v3.357c0 .074-.054.117-.121.117h-.487c-.067 0-.122-.043-.122-.117"/>
    </g>
</svg>
