<svg id="Layer_1" data-name="Layer 1" xmlns="http://www.w3.org/2000/svg" viewBox="0 0 80 80"><defs><style>.cls-1{fill:#fff;}</style></defs><title>account_icon</title><path class="cls-1" d="M53.62,39.64a17.47,17.47,0,1,0-27.24,0C21.49,43,18.64,48,18.64,53.35v9.14c0,3.46,3.21,6.27,7.16,6.27H54.2c3.95,0,7.16-2.81,7.16-6.27V53.35C61.36,48,58.51,43,53.62,39.64ZM40,16.19A12.52,12.52,0,1,1,27.48,28.71,12.54,12.54,0,0,1,40,16.19Zm16.41,46.3c0,.61-1,1.32-2.21,1.32H25.8c-1.24,0-2.21-.71-2.21-1.32V53.35c0-4,2.43-7.8,6.54-10.23a17.43,17.43,0,0,0,19.73,0c4.12,2.43,6.55,6.18,6.55,10.23Z"/></svg>