<svg id="Layer_1" data-name="Layer 1" xmlns="http://www.w3.org/2000/svg" viewBox="0 0 80 80"><defs><style>.cls-1{fill:#fff;}</style></defs><title>gameissues_icon</title><path class="cls-1" d="M70.79,35.32C69.44,30.54,66.14,22.06,59.23,19c-3.88-1.74-8.2-1.47-12.83.8a6.18,6.18,0,0,0-.83.48l-.76.47c-.55.33-1.15.69-1.62,1l-.06,0a2.08,2.08,0,0,1-1,.36H37.82a2.12,2.12,0,0,1-1-.36l0,0c-.71-.46-1.73-1.08-2.42-1.48a4.93,4.93,0,0,0-.8-.47c-4.64-2.27-9-2.54-12.84-.8C13.84,22.06,10.55,30.54,9.2,35.32A44.68,44.68,0,0,0,7.68,51.16c.39,4,1.58,9,5.07,10.49a6.17,6.17,0,0,0,2.47.51c2.71,0,5.68-1.68,8.47-4.85a68.61,68.61,0,0,1,5.83-5.92c1.23-.17,6.24-.21,10.45-.16H40c4.2,0,9.22,0,10.44.16a66.93,66.93,0,0,1,5.82,5.91c3.69,4.18,7.68,5.77,11,4.35C73,59.16,73.74,45.77,70.79,35.32ZM68.31,50.78c-.42,4.35-1.64,6.74-2.66,7.18-1.55.67-3.93-.57-6.36-3.34-5.81-6.45-7-6.86-7.43-7-.78-.28-3.43-.42-7.92-.42l-3.95,0c-6.88-.09-10.87,0-11.85.39-.45.15-1.63.57-7.45,7-2.39,2.71-4.82,4-6.34,3.32-1-.44-2.24-2.83-2.67-7.18a40.62,40.62,0,0,1,1.39-14.37c.93-3.3,3.71-11.26,9.33-13.77,2.74-1.23,5.92-1,9.43.74a1.92,1.92,0,0,1,.31.18l.16.1c.64.38,1.63,1,2.31,1.42a6.1,6.1,0,0,0,3,1h4.83a6.16,6.16,0,0,0,3-1l1.53-.94.84-.51.11-.08a1.92,1.92,0,0,1,.31-.18c3.52-1.72,6.69-2,9.43-.74,5.62,2.51,8.4,10.47,9.33,13.77h0A40.62,40.62,0,0,1,68.31,50.78ZM31.66,33.06v3.28A.65.65,0,0,1,31,37h-3v2.95a.65.65,0,0,1-.65.65H24.12a.65.65,0,0,1-.65-.65V37H20.55a.66.66,0,0,1-.66-.65V33.06a.65.65,0,0,1,.64-.65h2.94V29.46a.65.65,0,0,1,.65-.65h3.29a.65.65,0,0,1,.65.65v2.95h3A.65.65,0,0,1,31.66,33.06ZM54,31.8A2.85,2.85,0,1,1,51.14,29,2.85,2.85,0,0,1,54,31.8Zm6.6,5.95a2.84,2.84,0,1,1-2.84-2.85h0A2.84,2.84,0,0,1,60.59,37.75Z"/></svg>