<svg id="Layer_1" data-name="Layer 1" xmlns="http://www.w3.org/2000/svg" viewBox="0 0 80 80"><defs><style>.cls-1{fill:#fff;}</style></defs><title>troubleshooting_icon</title><path class="cls-1" d="M65.69,58.15,65.56,58,45.23,37.7l9.19-8.9,9.76-4.43,3.15-7.15-4.08-4.07-7.17,3.16-4.14,10-9.2,8.89-5.55-5.55-.07-9.42L23.18,12.37l-4.49,4.5,6.48,6.47-1.54,1.55-6.48-6.48-4.48,4.48,7.76,14,9.52,0,5.64,5.65-1.76,1.76-.44-.44a3.48,3.48,0,0,0-4.84-.08l-1.14,1.14a3.48,3.48,0,0,0-1,2.57l-8,8a3.07,3.07,0,0,0-2.47.9L14,58.27a3.12,3.12,0,0,0,0,4.4l4,4a3.11,3.11,0,0,0,4.4,0l1.89-1.89a3.1,3.1,0,0,0,.9-2.46l8-8a3.5,3.5,0,0,0,2.58-1l1-1a3.49,3.49,0,0,0,.06-4.91l-.62-.62L38.08,45,58.35,65.31a5.13,5.13,0,0,0,7.24,0l.13-.12v0a5.11,5.11,0,0,0,1.37-3.49,5.05,5.05,0,0,0-1.37-3.48ZM58.78,19l3.69-1.62.68.68-1.64,3.72-4.77,2.16ZM33.37,50.88l-1.08-.49L21,61.66l.64.93L20.28,64,16.8,60.47l1.37-1.37.92.64L30.4,48.49l-.48-1.09,1-1,3.47,3.46Zm3.77-9.15h0l.06,0Zm26,21.1v0a1.62,1.62,0,0,1-2.27,0L38.44,40.44l-7-7-8.9,0L17,23.51l.13-.14,6.48,6.48,6.5-6.5-6.47-6.48.12-.13,9.84,5.56.07,8.83,7,7,22.39,22.4h0a1.63,1.63,0,0,1,.47,1.14A1.58,1.58,0,0,1,63.11,62.83Z"/></svg>